<svg width="18" height="18" viewBox="0 0 18 18" fill="none" xmlns="http://www.w3.org/2000/svg">
<path d="M6 15C4.63144 15.0007 3.43589 14.0751 3.09375 12.75H1.5V11.25H3.0945C3.48423 9.74059 4.96509 8.78119 6.50196 9.04243C8.03883 9.30366 9.11953 10.6985 8.98865 12.2519C8.85776 13.8053 7.55892 14.9996 6 15ZM6 10.5C5.18055 10.5008 4.51342 11.1591 4.50167 11.9785C4.48993 12.7979 5.13792 13.475 5.95702 13.4993C6.77611 13.5237 7.46312 12.8861 7.5 12.0675V12.3675V12C7.5 11.1716 6.82843 10.5 6 10.5ZM16.5 12.75H9.75V11.25H16.5V12.75ZM9.75 9C8.38172 9.00035 7.18657 8.07483 6.8445 6.75H1.5V5.25H6.8445C7.23423 3.74059 8.71509 2.78119 10.252 3.04243C11.7888 3.30366 12.8695 4.69847 12.7386 6.25188C12.6078 7.80529 11.3089 8.99961 9.75 9ZM9.75 4.5C8.93055 4.50083 8.26342 5.15914 8.25167 5.97851C8.23993 6.79788 8.88792 7.47503 9.70702 7.49934C10.5261 7.52365 11.2131 6.88613 11.25 6.0675V6.3675V6C11.25 5.17158 10.5784 4.5 9.75 4.5ZM16.5 6.75H13.5V5.25H16.5V6.75Z" fill="white"/>
</svg>
