<svg width="630" height="546" viewBox="0 0 630 546" fill="none" xmlns="http://www.w3.org/2000/svg">
<path d="M191.962 456.72C155.957 470.07 137.271 473.619 135.903 467.367C135.134 463.85 137.562 461.048 143.188 458.963L152.189 455.625C153.775 455.46 155.318 455.099 156.818 454.542C158.693 453.847 160.568 453.152 162.444 452.457C200.324 438.411 234.253 419.283 264.233 395.071C294.877 370.19 318.922 344.799 336.367 318.898C354.017 292.075 366.723 265.819 374.483 240.129C382.534 213.909 384.464 191.226 380.276 172.079C373.694 141.99 357.041 122.395 330.316 113.294C314.967 108.001 299.364 106.182 283.507 107.837C268.025 109.353 252.221 113.101 236.094 119.08L232.156 120.54C206.653 129.997 176.737 146.158 142.409 169.026C108.455 191.754 70.1917 220.727 27.6176 255.946C19.7416 258.866 14.4787 254.269 11.8288 242.156C10.974 238.248 12.0633 234.887 15.0969 232.072C16.8012 230.596 19.7326 228.241 23.8913 225.01C27.9645 221.387 34.9099 216.066 44.7274 209.046C76.1739 185.98 106.906 166.136 136.924 149.514C166.856 132.501 195.512 118.919 222.89 108.768C266.771 92.497 305.544 89.95 339.21 101.125C372.415 112.048 393.035 135.875 401.07 172.606C405.943 194.88 404.669 219.643 397.251 246.896C390.207 274.01 378.005 300.713 360.645 327.005C343.37 353.688 319.99 378.411 290.504 401.172C261.189 424.715 228.342 443.231 191.962 456.72ZM131.476 508.296C125.476 510.521 119.788 508.617 114.413 502.583C109.124 496.94 104.984 487.28 101.992 473.604C91.4779 425.54 101.918 343.515 133.311 227.529C132.969 225.966 133.947 221.168 136.244 213.134C138.916 204.962 141.01 197.849 142.524 191.795C145.262 180.219 148.695 173.665 152.82 172.136C156.946 170.606 161.89 170.04 167.654 170.438C173.332 170.445 176.427 171.62 176.94 173.965C173.945 184.369 170.763 194.843 167.392 205.387C164.397 215.792 161.215 226.266 157.845 236.809C123.114 361.637 109.895 443.003 118.186 480.906C119.212 485.595 121.764 490.775 125.843 496.444C129.921 502.114 132.131 505.73 132.473 507.293L131.476 508.296Z" fill="#EAEAEB"/>
<path d="M531.73 386C510.73 386 489.397 376.333 467.73 357C446.397 338 427.064 312.667 409.73 281C397.73 255.333 391.73 242.333 391.73 242C391.73 241 392.897 238.833 395.23 235.5C398.23 232.167 400.397 230.5 401.73 230.5C403.397 230.5 404.23 231.667 404.23 234C413.564 227.333 422.397 220.667 430.73 214C439.397 207.333 450.397 197.833 463.73 185.5L508.23 145C529.23 128 546.23 116.833 559.23 111.5C572.23 105.833 583.564 103 593.23 103C603.23 103 611.73 104.167 618.73 106.5C626.064 108.833 629.73 111.333 629.73 114C629.73 116 628.064 117 624.73 117C620.397 115.667 616.73 114.833 613.73 114.5C611.064 113.833 609.064 113.5 607.73 113.5C592.397 113.5 573.897 120.667 552.23 135C540.23 143 527.564 151.833 514.23 161.5C500.897 171.167 485.897 182.333 469.23 195L407.73 242C426.397 280.667 449.397 312 476.73 336C504.064 360.333 526.564 372.5 544.23 372.5C553.23 372.5 557.73 368.333 557.73 360C557.73 352 549.397 335.667 532.73 311L533.73 310C535.73 310 539.23 312.5 544.23 317.5C560.23 332.833 568.23 346.833 568.23 359.5C568.23 367.167 564.73 373.5 557.73 378.5C551.064 383.5 542.397 386 531.73 386ZM355.23 373.5C350.23 373.5 345.897 370.5 342.23 364.5C338.564 358.833 336.73 349.833 336.73 337.5C336.73 296.833 360.397 235.167 407.73 152.5C420.064 127.167 428.73 114.5 433.73 114.5C437.397 114.5 441.564 115.667 446.23 118C450.897 120 453.23 121.667 453.23 123L443.23 138.5C441.23 141.833 438.564 146 435.23 151C432.23 156 429.064 161.333 425.73 167C374.73 255.333 349.23 315.667 349.23 348C349.23 352.333 350.397 357.333 352.73 363C355.397 370 356.23 373.5 355.23 373.5Z" fill="#FF6B00"/>
</svg>
