<svg width="630" height="817" viewBox="0 0 630 817" fill="none" xmlns="http://www.w3.org/2000/svg">
<path d="M191.962 519.72C155.957 533.07 137.271 536.619 135.903 530.367C135.134 526.85 137.562 524.048 143.188 521.963L152.189 518.625C153.775 518.46 155.318 518.099 156.818 517.542C158.693 516.847 160.568 516.152 162.444 515.457C200.324 501.411 234.253 482.283 264.233 458.071C294.877 433.19 318.922 407.799 336.367 381.898C354.017 355.075 366.723 328.819 374.483 303.129C382.534 276.909 384.464 254.226 380.276 235.079C373.694 204.99 357.041 185.395 330.316 176.294C314.967 171.001 299.364 169.182 283.507 170.837C268.025 172.353 252.221 176.101 236.094 182.08L232.156 183.54C206.653 192.997 176.737 209.158 142.409 232.026C108.455 254.754 70.1917 283.727 27.6176 318.946C19.7416 321.866 14.4787 317.269 11.8288 305.156C10.974 301.248 12.0633 297.887 15.0969 295.072C16.8012 293.596 19.7326 291.241 23.8913 288.01C27.9645 284.387 34.9099 279.066 44.7274 272.046C76.1739 248.98 106.906 229.136 136.924 212.514C166.856 195.501 195.512 181.919 222.89 171.768C266.771 155.497 305.544 152.95 339.21 164.125C372.415 175.048 393.035 198.875 401.07 235.606C405.943 257.88 404.669 282.643 397.251 309.896C390.207 337.01 378.005 363.713 360.645 390.005C343.37 416.688 319.99 441.411 290.504 464.172C261.189 487.715 228.342 506.231 191.962 519.72ZM131.476 571.296C125.476 573.521 119.788 571.617 114.413 565.583C109.124 559.94 104.984 550.28 101.992 536.604C91.4779 488.54 101.918 406.515 133.311 290.529C132.969 288.966 133.947 284.168 136.244 276.134C138.916 267.962 141.01 260.849 142.524 254.795C145.262 243.219 148.695 236.665 152.82 235.136C156.946 233.606 161.89 233.04 167.654 233.438C173.332 233.445 176.427 234.62 176.94 236.965C173.945 247.369 170.763 257.843 167.392 268.387C164.397 278.792 161.215 289.266 157.845 299.809C123.114 424.637 109.895 506.003 118.186 543.906C119.212 548.595 121.764 553.775 125.843 559.444C129.921 565.114 132.131 568.73 132.473 570.293L131.476 571.296Z" fill="#EAEAEB"/>
<path d="M531.73 449C510.73 449 489.397 439.333 467.73 420C446.397 401 427.064 375.667 409.73 344C397.73 318.333 391.73 305.333 391.73 305C391.73 304 392.897 301.833 395.23 298.5C398.23 295.167 400.397 293.5 401.73 293.5C403.397 293.5 404.23 294.667 404.23 297C413.564 290.333 422.397 283.667 430.73 277C439.397 270.333 450.397 260.833 463.73 248.5L508.23 208C529.23 191 546.23 179.833 559.23 174.5C572.23 168.833 583.564 166 593.23 166C603.23 166 611.73 167.167 618.73 169.5C626.064 171.833 629.73 174.333 629.73 177C629.73 179 628.064 180 624.73 180C620.397 178.667 616.73 177.833 613.73 177.5C611.064 176.833 609.064 176.5 607.73 176.5C592.397 176.5 573.897 183.667 552.23 198C540.23 206 527.564 214.833 514.23 224.5C500.897 234.167 485.897 245.333 469.23 258L407.73 305C426.397 343.667 449.397 375 476.73 399C504.064 423.333 526.564 435.5 544.23 435.5C553.23 435.5 557.73 431.333 557.73 423C557.73 415 549.397 398.667 532.73 374L533.73 373C535.73 373 539.23 375.5 544.23 380.5C560.23 395.833 568.23 409.833 568.23 422.5C568.23 430.167 564.73 436.5 557.73 441.5C551.064 446.5 542.397 449 531.73 449ZM355.23 436.5C350.23 436.5 345.897 433.5 342.23 427.5C338.564 421.833 336.73 412.833 336.73 400.5C336.73 359.833 360.397 298.167 407.73 215.5C420.064 190.167 428.73 177.5 433.73 177.5C437.397 177.5 441.564 178.667 446.23 181C450.897 183 453.23 184.667 453.23 186L443.23 201.5C441.23 204.833 438.564 209 435.23 214C432.23 219 429.064 224.333 425.73 230C374.73 318.333 349.23 378.667 349.23 411C349.23 415.333 350.397 420.333 352.73 426C355.397 433 356.23 436.5 355.23 436.5Z" fill="#FF6B00"/>
</svg>
