<svg width="84" height="41" viewBox="0 0 84 41" fill="none" xmlns="http://www.w3.org/2000/svg">
<path d="M5.69824 29.916C6.54785 29.9941 7.23633 30.0479 7.76367 30.0771V11.2246C7.12891 11.2734 6.44043 11.3564 5.69824 11.4736V29.916ZM19.2773 23.251C19.5215 22.4111 19.6436 21.3711 19.6436 20.1309C19.6436 18.8809 19.3799 17.6553 18.8525 16.4541C18.3252 15.2432 17.5977 14.2324 16.6699 13.4219C14.7656 11.7617 12.3096 11.0195 9.30176 11.1953V30.0771C12.1533 30.165 14.5801 29.3057 16.582 27.499C17.8809 26.3369 18.7793 24.9209 19.2773 23.251ZM4.1748 11.7373L1.88965 12.3086C1.66504 12.3086 1.48438 12.2305 1.34766 12.0742C1.21094 11.9082 1.14258 11.7324 1.14258 11.5469C1.14258 11.1562 1.31348 10.9121 1.65527 10.8145C1.69434 10.8047 1.90918 10.7412 2.2998 10.624C2.7002 10.4971 3.23242 10.3652 3.89648 10.2285C5.63477 9.85742 7.37305 9.67188 9.11133 9.67188C10.8594 9.67188 12.4658 9.90137 13.9307 10.3604C15.3955 10.8096 16.665 11.4883 17.7393 12.3965C20.0342 14.3398 21.1816 17.0693 21.1816 20.585C21.1816 22.9092 20.5811 24.9404 19.3799 26.6787C18.2764 28.2705 16.7285 29.5059 14.7363 30.3848C12.8125 31.2148 10.6885 31.6299 8.36426 31.6299C6.00098 31.6299 3.85254 31.3076 1.91895 30.6631C1.57715 30.5264 1.40625 30.3164 1.40625 30.0332C1.40625 29.75 1.48926 29.5352 1.65527 29.3887C1.82129 29.2422 2.00195 29.1689 2.19727 29.1689L4.1748 29.6816V11.7373Z" fill="#FF6B00"/>
<path d="M25.6172 20.2773C25.513 20.6484 25.4609 21.0293 25.4609 21.4199C25.4609 21.8105 25.513 22.1654 25.6172 22.4844C25.7279 22.8034 25.9492 23.1094 26.2812 23.4023C27.0365 24.0664 28.3483 24.5938 30.2168 24.9844C31.4212 25.2448 32.3327 25.5345 32.9512 25.8535C33.5762 26.166 34.0612 26.4948 34.4062 26.8398C34.7578 27.1784 34.9824 27.5853 35.0801 28.0605C35.1712 27.7936 35.2168 27.4909 35.2168 27.1523C35.2168 26.8073 35.1484 26.485 35.0117 26.1855C34.8815 25.8861 34.7057 25.6257 34.4844 25.4043C34.2695 25.1764 34.0189 24.9779 33.7324 24.8086C33.446 24.6393 33.1497 24.4961 32.8438 24.3789C32.4271 24.2161 31.9258 24.0632 31.3398 23.9199C30.7539 23.7767 30.2559 23.653 29.8457 23.5488C29.4355 23.4447 29.0352 23.3275 28.6445 23.1973C28.2539 23.0671 27.8828 22.9173 27.5312 22.748C27.1797 22.5788 26.8672 22.377 26.5938 22.1426C26.0143 21.6413 25.6888 21.0195 25.6172 20.2773ZM25.2363 27.7383C26.7533 29.6849 28.6413 30.6582 30.9004 30.6582C32.2936 30.6582 33.2669 30.3164 33.8203 29.6328C34.0352 29.3789 34.1426 29.0827 34.1426 28.7441C34.1426 28.4056 34.0677 28.1224 33.918 27.8945C33.7682 27.6602 33.5729 27.4518 33.332 27.2695C33.0911 27.0872 32.8177 26.9277 32.5117 26.791C32.2122 26.6478 31.9095 26.5241 31.6035 26.4199C31.1152 26.2507 30.6139 26.1139 30.0996 26.0098C29.5853 25.9056 29.1003 25.7949 28.6445 25.6777C28.1888 25.554 27.7559 25.4076 27.3457 25.2383C26.9355 25.069 26.5547 24.8704 26.2031 24.6426C25.8516 24.4147 25.5456 24.1445 25.2852 23.832C24.7383 23.1745 24.4648 22.3444 24.4648 21.3418C24.4648 19.8509 25.0182 18.6693 26.125 17.7969C27.1406 16.9961 28.3711 16.5957 29.8164 16.5957C30.6302 16.5957 31.5286 16.7617 32.5117 17.0938C33.4622 17.4193 34.1198 17.7936 34.4844 18.2168C34.6341 17.8132 34.8457 17.3216 35.1191 16.7422C35.2298 16.5534 35.3698 16.459 35.5391 16.459C35.7148 16.459 35.8516 16.5143 35.9492 16.625C36.0469 16.7292 36.0957 16.8333 36.0957 16.9375C36.0957 17.0352 36.0013 17.2793 35.8125 17.6699C35.6237 18.0605 35.4186 18.6107 35.1973 19.3203C34.9824 20.0234 34.8294 20.7363 34.7383 21.459C34.7253 21.5892 34.6699 21.6966 34.5723 21.7812C34.4811 21.8594 34.3639 21.8984 34.2207 21.8984C34.084 21.8984 33.9668 21.8431 33.8691 21.7324C33.7715 21.6217 33.7227 21.5111 33.7227 21.4004V21.3418C33.8008 20.6517 33.9408 19.9714 34.1426 19.3008C34.0254 18.9427 33.4557 18.5716 32.4336 18.1875C31.418 17.7969 30.513 17.6016 29.7188 17.6016C28.3516 17.6016 27.4173 18.0247 26.916 18.8711C26.7402 19.1641 26.6491 19.5189 26.6426 19.9355C26.7077 20.8861 27.3132 21.5924 28.459 22.0547C29.0124 22.2891 29.5592 22.4648 30.0996 22.582C30.64 22.6927 31.138 22.8034 31.5938 22.9141C32.056 23.0182 32.5866 23.168 33.1855 23.3633C33.7845 23.5586 34.3086 23.8158 34.7578 24.1348C35.7474 24.8314 36.2422 25.8535 36.2422 27.2012C36.2422 28.5423 35.6595 29.6458 34.4941 30.5117C33.4329 31.293 32.2415 31.6836 30.9199 31.6836C28.6152 31.6836 26.6947 30.8633 25.1582 29.2227V29.457C25.1582 29.8672 25.1712 30.2741 25.1973 30.6777V30.7168C25.1973 30.847 25.1517 30.9609 25.0605 31.0586C24.9759 31.1562 24.8587 31.2083 24.709 31.2148C24.5658 31.2214 24.4453 31.179 24.3477 31.0879C24.25 30.9967 24.1947 30.8633 24.1816 30.6875C24.1556 30.3359 24.1426 29.8802 24.1426 29.3203C24.1426 28.2852 24.263 27.1654 24.5039 25.9609C24.5755 25.681 24.7415 25.541 25.002 25.541C25.1517 25.541 25.2754 25.5996 25.373 25.7168C25.4707 25.8275 25.5195 25.9154 25.5195 25.9805V26.0977C25.5195 26.1172 25.5065 26.1693 25.4805 26.2539C25.4609 26.3385 25.4382 26.446 25.4121 26.5762C25.3926 26.6999 25.3698 26.8203 25.3438 26.9375C25.3242 27.0742 25.2884 27.3411 25.2363 27.7383ZM42.5996 17.9043C42.5996 17.9043 42.362 17.9043 41.8867 17.9043C41.6589 17.9043 41.4212 17.8978 41.1738 17.8848L40.959 30.082H42.2578L42.5996 17.9043ZM53.1758 16.5957C53.4362 16.5957 53.6022 16.7292 53.6738 16.9961C53.6738 17.3346 53.5404 17.543 53.2734 17.6211C52.5964 17.7578 51.9193 17.8522 51.2422 17.9043C50.8776 21.1855 50.6953 24.9453 50.6953 29.1836V30.1406C51.3138 30.1406 51.9681 30.1732 52.6582 30.2383C52.9642 30.3034 53.1172 30.4922 53.1172 30.8047C53.1042 30.9414 53.0456 31.0521 52.9414 31.1367C52.8438 31.2214 52.7298 31.2637 52.5996 31.2637H52.5605C51.7467 31.1921 51.0273 31.1562 50.4023 31.1562C49.7578 31.1562 49.071 31.1921 48.3418 31.2637H48.2734C48.1237 31.2637 48 31.2116 47.9023 31.1074C47.8047 31.0033 47.7559 30.8861 47.7559 30.7559C47.7559 30.6257 47.7982 30.5117 47.8828 30.4141C47.974 30.3164 48.1139 30.2578 48.3027 30.2383C48.6348 30.2057 49.0938 30.1732 49.6797 30.1406V29.1836C49.6797 27.7578 49.6992 26.4232 49.7383 25.1797C48.8008 25.2708 47.7331 25.3164 46.5352 25.3164C45.3372 25.3164 44.2988 25.2708 43.4199 25.1797L43.3027 30.1211C43.6738 30.1471 44.1849 30.1862 44.8359 30.2383C44.9661 30.2578 45.0736 30.3164 45.1582 30.4141C45.2493 30.5117 45.2949 30.6322 45.2949 30.7754C45.2949 30.9121 45.2396 31.026 45.1289 31.1172C45.0182 31.2148 44.901 31.2637 44.7773 31.2637H44.7383C42.6615 31.0553 40.6074 31.0553 38.5762 31.2637H38.5371C38.3874 31.2637 38.2637 31.2116 38.166 31.1074C38.0684 31.0033 38.0195 30.8861 38.0195 30.7559C38.0195 30.6257 38.0618 30.5117 38.1465 30.4141C38.2376 30.3164 38.3743 30.2578 38.5566 30.2383C38.7454 30.2188 38.9603 30.1992 39.2012 30.1797C39.4486 30.1602 39.6927 30.1406 39.9336 30.1211L40.1582 17.7969C39.5983 17.7578 39.0319 17.6992 38.459 17.6211C38.3288 17.6016 38.2214 17.543 38.1367 17.4453C38.0586 17.3477 38.0195 17.2272 38.0195 17.084C38.0195 16.9408 38.0781 16.8236 38.1953 16.7324C38.3125 16.6413 38.4264 16.5957 38.5371 16.5957H38.5957C39.8457 16.7845 41.0632 16.8789 42.248 16.8789C43.4329 16.8789 44.3509 16.8464 45.002 16.7812H45.041C45.1712 16.7812 45.2852 16.8268 45.3828 16.918C45.487 17.0026 45.5423 17.1198 45.5488 17.2695C45.5553 17.4128 45.5098 17.5332 45.4121 17.6309C45.321 17.7285 45.181 17.7839 44.9922 17.7969C44.4128 17.849 43.9538 17.8848 43.6152 17.9043L43.459 24.1445C44.3184 24.2487 45.181 24.3008 46.0469 24.3008C47.5898 24.3008 48.8333 24.2552 49.7773 24.1641C49.8555 21.9115 50.002 19.8379 50.2168 17.9434C49.5592 17.9108 49.1133 17.8717 48.8789 17.8262C48.4753 17.7611 48.2734 17.5853 48.2734 17.2988C48.2734 17.1361 48.3288 17.0091 48.4395 16.918C48.5566 16.8268 48.6706 16.7812 48.7812 16.7812H48.8594C49.3151 16.8724 49.901 16.918 50.6172 16.918C51.3333 16.918 52.1471 16.8105 53.0586 16.5957H53.1758ZM58.8008 29.7012C57.707 28.4251 57.1602 26.4915 57.1602 23.9004C57.1602 21.3613 57.9056 19.4408 59.3965 18.1387C59.4355 18.0996 59.4844 18.0605 59.543 18.0215C58.4102 18.5228 57.502 19.3138 56.8184 20.3945C56.1152 21.5013 55.7637 22.722 55.7637 24.0566C55.7637 25.86 56.3626 27.403 57.5605 28.6855C57.9316 29.0827 58.3451 29.4212 58.8008 29.7012ZM67.8633 24.0859C67.8633 23.6237 67.8047 23.1517 67.6875 22.6699C67.5703 22.1816 67.4043 21.7064 67.1895 21.2441C66.9811 20.7754 66.7272 20.3327 66.4277 19.916C66.1348 19.4928 65.8125 19.125 65.4609 18.8125C64.6862 18.1224 63.8919 17.7773 63.0781 17.7773C61.4766 17.7773 60.2331 18.4349 59.3477 19.75C58.5664 20.9154 58.1758 22.2988 58.1758 23.9004C58.1758 25.0723 58.2799 26.0033 58.4883 26.6934C58.6966 27.3835 58.9147 27.9401 59.1426 28.3633C59.377 28.7799 59.6634 29.1445 60.002 29.457C60.7246 30.1146 61.6361 30.4434 62.7363 30.4434C63.6152 30.4434 64.4714 30.1081 65.3047 29.4375C66.0599 28.819 66.6784 28.0052 67.1602 26.9961C67.6289 26.0065 67.8633 25.0365 67.8633 24.0859ZM68.8789 24.0859C68.8789 24.75 68.791 25.401 68.6152 26.0391C68.446 26.6706 68.2051 27.2663 67.8926 27.8262C67.5866 28.3861 67.2155 28.8971 66.7793 29.3594C66.3431 29.8216 65.8646 30.2188 65.3438 30.5508C64.2435 31.2474 63.0618 31.5957 61.7988 31.5957C59.8652 31.5957 58.2018 30.8568 56.8086 29.3789C55.9362 28.4544 55.3307 27.3477 54.9922 26.0586C54.8229 25.4141 54.7383 24.7467 54.7383 24.0566C54.7383 22.696 55.0605 21.4297 55.7051 20.2578C56.3236 19.1315 57.1699 18.2266 58.2441 17.543C59.3314 16.8594 60.5163 16.5176 61.7988 16.5176C63.1204 16.5176 64.3411 16.8854 65.4609 17.6211C66.5091 18.3112 67.3392 19.2389 67.9512 20.4043C68.5697 21.5697 68.8789 22.7969 68.8789 24.0859ZM75.041 17.6797C74.4941 17.7057 74.0189 17.7383 73.6152 17.7773L73.4004 30.0039H74.6992L75.041 17.6797ZM75.8418 25.9219C76.2454 26.026 76.75 26.0781 77.3555 26.0781C77.9609 26.0781 78.5729 25.9902 79.1914 25.8145C79.8164 25.6322 80.3633 25.3652 80.832 25.0137C81.8607 24.252 82.375 23.2005 82.375 21.8594C82.375 19.9974 81.3691 18.7474 79.3574 18.1094C78.6152 17.8685 77.7428 17.7253 76.7402 17.6797H76.0566L75.8418 25.9219ZM77.1797 31.1758C75.1029 30.9674 73.0488 30.9674 71.0176 31.1758H70.9785C70.8353 31.1758 70.7116 31.1237 70.6074 31.0195C70.5098 30.9219 70.4609 30.8079 70.4609 30.6777C70.4609 30.5475 70.5033 30.4336 70.5879 30.3359C70.679 30.2383 70.8158 30.1797 70.998 30.1602C71.1868 30.1406 71.4017 30.1211 71.6426 30.1016C71.89 30.082 72.1341 30.0625 72.375 30.043L72.5996 17.9238C72.1178 18.002 71.7598 18.0801 71.5254 18.1582C71.2975 18.2363 71.1608 18.2852 71.1152 18.3047C71.0697 18.3177 70.998 18.3242 70.9004 18.3242C70.8092 18.3242 70.7116 18.2689 70.6074 18.1582C70.5098 18.0475 70.4609 17.9336 70.4609 17.8164C70.4609 17.5625 70.5684 17.3965 70.7832 17.3184C72.1309 16.8691 73.8236 16.6445 75.8613 16.6445H76.3008C76.457 16.6445 76.7142 16.6543 77.0723 16.6738C77.4303 16.6868 77.8828 16.7389 78.4297 16.8301C78.9766 16.9212 79.4974 17.0612 79.9922 17.25C80.487 17.4323 80.9395 17.6602 81.3496 17.9336C81.7663 18.207 82.1276 18.5326 82.4336 18.9102C83.0781 19.7174 83.4004 20.7005 83.4004 21.8594C83.4004 23.4674 82.7363 24.7695 81.4082 25.7656C80.2103 26.6576 78.8203 27.1035 77.2383 27.1035C76.6849 27.1035 76.2129 27.0547 75.8223 26.957L75.7441 30.043C76.1152 30.069 76.6263 30.1081 77.2773 30.1602C77.4076 30.1797 77.515 30.2383 77.5996 30.3359C77.6908 30.4336 77.7363 30.554 77.7363 30.6973C77.7363 30.834 77.681 30.9479 77.5703 31.0391C77.4596 31.1302 77.3424 31.1758 77.2188 31.1758H77.1797Z" fill="black"/>
</svg>
