<svg width="30" height="30" viewBox="0 0 30 30" fill="none" xmlns="http://www.w3.org/2000/svg">
<circle cx="15" cy="15" r="15" fill="#1C1C1C"/>
<path d="M12 21C10.6314 21.0007 9.43589 20.0751 9.09375 18.75H7.5V17.25H9.0945C9.48423 15.7406 10.9651 14.7812 12.502 15.0424C14.0388 15.3037 15.1195 16.6985 14.9886 18.2519C14.8578 19.8053 13.5589 20.9996 12 21ZM12 16.5C11.1805 16.5008 10.5134 17.1591 10.5017 17.9785C10.4899 18.7979 11.1379 19.475 11.957 19.4993C12.7761 19.5237 13.4631 18.8861 13.5 18.0675V18.3675V18C13.5 17.1716 12.8284 16.5 12 16.5ZM22.5 18.75H15.75V17.25H22.5V18.75ZM15.75 15C14.3817 15.0004 13.1866 14.0748 12.8445 12.75H7.5V11.25H12.8445C13.2342 9.74059 14.7151 8.78119 16.252 9.04243C17.7888 9.30366 18.8695 10.6985 18.7386 12.2519C18.6078 13.8053 17.3089 14.9996 15.75 15ZM15.75 10.5C14.9305 10.5008 14.2634 11.1591 14.2517 11.9785C14.2399 12.7979 14.8879 13.475 15.707 13.4993C16.5261 13.5237 17.2131 12.8861 17.25 12.0675V12.3675V12C17.25 11.1716 16.5784 10.5 15.75 10.5ZM22.5 12.75H19.5V11.25H22.5V12.75Z" fill="white"/>
</svg>
