<svg width="14" height="14" viewBox="0 0 14 14" fill="none" xmlns="http://www.w3.org/2000/svg">
<path d="M12.7519 13.0447C12.4395 13.3571 11.933 13.3571 11.6206 13.0447L8.26907 9.69397C8.00044 9.4254 7.58248 9.38941 7.24117 9.55615C5.16868 10.5686 2.62926 10.0443 1.13493 8.21415C-0.498754 6.2133 -0.353301 3.30073 1.4716 1.4726C3.29942 -0.353006 6.21231 -0.49909 8.2136 1.13449C10.0442 2.62876 10.5687 5.16857 9.55608 7.24131C9.38937 7.58255 9.42529 8.00042 9.69374 8.26906L13.044 11.6216C13.3562 11.9341 13.3561 12.4405 13.0438 12.7528L12.7519 13.0447ZM5.0316 2.01259C3.59085 2.01168 2.35009 3.02862 2.06809 4.4415C1.7861 5.85439 2.54142 7.26972 3.87213 7.82195C5.20285 8.37418 6.73834 7.90951 7.53959 6.71211C8.34083 5.51471 8.18467 3.91806 7.1666 2.8986C6.60185 2.32994 5.83305 2.0109 5.0316 2.01259Z" fill="#1C1C1C"/>
</svg>
