<svg width="15" height="16" viewBox="0 0 15 16" fill="none" xmlns="http://www.w3.org/2000/svg">
<path d="M10.9786 5V5.45H11.4286H12.5455C13.4015 5.45 14.0955 6.14396 14.0955 7V13.5C14.0955 14.6161 13.1504 15.55 11.948 15.55H2.5974C1.39505 15.55 0.45 14.6161 0.45 13.5V7C0.45 6.14396 1.14396 5.45 2 5.45H3.11688H3.56688V5V4C3.56688 2.05896 5.21333 0.45 7.27273 0.45C9.33209 0.45 10.9786 2.05896 10.9786 4V5ZM8.88889 5.45H9.33889V5V4C9.33889 3.40212 9.21364 2.88444 8.78036 2.55969C8.38752 2.26526 7.84096 2.21667 7.27273 2.21667C6.71182 2.21667 6.17538 2.26208 5.80454 2.57657C5.40852 2.9124 5.32778 3.43526 5.32778 4V5V5.45H5.77778H8.88889ZM9.16039 7C9.16039 7.6788 9.72709 8.2 10.3896 8.2C11.0521 8.2 11.6188 7.6788 11.6188 7C11.6188 6.3212 11.0521 5.8 10.3896 5.8C9.72709 5.8 9.16039 6.3212 9.16039 7ZM2.92662 7C2.92662 7.6788 3.49332 8.2 4.15584 8.2C4.81836 8.2 5.38506 7.6788 5.38506 7C5.38506 6.3212 4.81836 5.8 4.15584 5.8C3.49332 5.8 2.92662 6.3212 2.92662 7Z" stroke="black" stroke-width="0.9"/>
</svg>
